<svg width="1920" height="975" viewBox="0 0 1920 975" fill="none" xmlns="http://www.w3.org/2000/svg">
<g clip-path="url(#clip0)">
<rect width="1920" height="1080" transform="translate(0 -105)" fill="white"/>
<path d="M1620 313C1661.42 313 1695 279.421 1695 238C1695 196.579 1661.42 163 1620 163C1578.58 163 1545 196.579 1545 238C1545 279.421 1578.58 313 1620 313Z" fill="url(#paint0_linear)"/>
<path d="M1620 304.177C1656.55 304.177 1686.18 274.548 1686.18 238C1686.18 201.452 1656.55 171.824 1620 171.824C1583.45 171.824 1553.82 201.452 1553.82 238C1553.82 274.548 1583.45 304.177 1620 304.177Z" fill="white"/>
<path d="M1619.45 262.664C1633.07 262.664 1644.11 251.621 1644.11 238C1644.11 224.379 1633.07 213.336 1619.45 213.336C1605.82 213.336 1594.78 224.379 1594.78 238C1594.78 251.621 1605.82 262.664 1619.45 262.664Z" fill="white"/>
<path d="M1623.16 248.784L1613.92 240.376L1614.03 240.275C1620.15 234.04 1624.76 226.568 1627.52 218.4H1638.18V211.7H1612.72V205H1605.46V211.7H1580V218.366H1620.62C1618.08 225.052 1614.16 231.164 1609.09 236.327C1605.79 232.961 1602.96 229.185 1600.69 225.1H1593.42C1596.17 230.715 1599.83 235.872 1604.25 240.376L1585.74 257.193L1590.91 261.95L1609.09 245.2L1620.39 255.619L1623.16 248.785L1623.16 248.784ZM1643.63 231.8H1636.36L1620 272H1627.27L1631.34 261.95H1648.61L1652.73 272H1660L1643.63 231.8ZM1634.09 255.25L1639.98 240.745L1645.89 255.25H1634.09Z" fill="url(#paint1_linear)"/>
<path d="M1888.5 154C1963.33 154 2024 93.3346 2024 18.5C2024 -56.3346 1963.33 -117 1888.5 -117C1813.67 -117 1753 -56.3346 1753 18.5C1753 93.3346 1813.67 154 1888.5 154Z" fill="url(#paint2_linear)"/>
<path d="M1888.5 138.059C1954.53 138.059 2008.06 84.5307 2008.06 18.5002C2008.06 -47.5303 1954.53 -101.059 1888.5 -101.059C1822.47 -101.059 1768.94 -47.5303 1768.94 18.5002C1768.94 84.5307 1822.47 138.059 1888.5 138.059Z" fill="white"/>
<path d="M1887.5 69C1915.39 69 1938 46.3904 1938 18.5C1938 -9.39038 1915.39 -32 1887.5 -32C1859.61 -32 1837 -9.39038 1837 18.5C1837 46.3904 1859.61 69 1887.5 69Z" fill="url(#paint3_linear)"/>
<path d="M1887.5 63.0586C1912.11 63.0586 1932.06 43.1089 1932.06 18.4997C1932.06 -6.10942 1912.11 -26.0591 1887.5 -26.0591C1862.89 -26.0591 1842.94 -6.10942 1842.94 18.4997C1842.94 43.1089 1862.89 63.0586 1887.5 63.0586Z" fill="white"/>
<path d="M-223.5 1848C200.378 1848 544 1504.38 544 1080.5C544 656.621 200.378 313 -223.5 313C-647.379 313 -991 656.621 -991 1080.5C-991 1504.38 -647.379 1848 -223.5 1848Z" fill="url(#paint4_linear)"/>
<path d="M-223.5 1757.71C150.51 1757.71 453.706 1454.51 453.706 1080.5C453.706 706.489 150.51 403.294 -223.5 403.294C-597.511 403.294 -900.706 706.489 -900.706 1080.5C-900.706 1454.51 -597.511 1757.71 -223.5 1757.71Z" fill="white"/>
<path d="M-222.832 511.647C-336.73 511.647 -448.07 545.422 -542.773 608.7C-637.476 671.978 -711.287 761.918 -754.874 867.146C-798.461 972.374 -809.865 1088.16 -787.645 1199.87C-765.424 1311.58 -710.577 1414.19 -630.039 1494.73C-549.502 1575.27 -446.89 1630.12 -335.181 1652.34C-223.471 1674.56 -107.681 1663.15 -2.45343 1619.57C102.775 1575.98 192.714 1502.17 255.993 1407.47C319.271 1312.76 353.046 1201.42 353.046 1087.52C352.993 934.809 292.303 788.362 184.317 680.376C76.33 572.389 -70.1161 511.7 -222.832 511.647ZM-280.422 1544.2C-302.092 1560.21 -351.447 1531.05 -389.262 1516.89C-476.088 1483.63 -550.743 1424.74 -603.317 1348.06C-655.892 1271.37 -683.899 1180.5 -683.621 1087.52C-683.621 1051.82 -686.565 1006.37 -671.522 984.445C-656.479 962.522 -649.436 973.826 -623.467 999.813C-597.499 1025.8 -612.289 1117 -555.349 1182.12C-498.41 1247.24 -453.317 1187.53 -395.691 1260.31C-338.066 1333.09 -441.182 1289.39 -422.78 1346C-404.378 1402.62 -315.98 1408.29 -280.422 1457.93C-244.864 1507.57 -258.751 1528.16 -280.422 1544.2ZM91.5898 1404.89C67.3007 1386.45 95.8157 1355.3 81.1339 1333.56C75.329 1322.76 66.6517 1313.78 56.0613 1307.61C45.4708 1301.43 33.3797 1298.31 21.1243 1298.58C21.1243 1298.58 -45.6934 1328.88 -59.9959 1285.68C-74.2985 1242.49 -49.9913 1145.11 -49.9913 1145.11C-50.0437 1129.86 -56.1279 1115.24 -66.9167 1104.45C-77.7055 1093.66 -92.3233 1087.58 -107.581 1087.52C-107.581 1087.52 -366.725 1113.29 -453.1 1087.52C-539.476 1061.75 -481.886 1013.23 -453.1 984.445C-424.315 955.659 -345.47 1001.87 -302.273 984.445C-295.007 981.854 -288.39 977.715 -282.88 972.315C-277.37 966.915 -273.099 960.383 -270.362 953.17C-267.624 945.958 -266.486 938.236 -267.026 930.541C-267.565 922.845 -269.77 915.358 -273.487 908.598C-283.149 894.151 -331.059 858.196 -302.273 829.41C-273.487 800.624 -203.22 806.475 -165.803 812.651C-128.385 818.828 -106.028 841.437 -77.3143 812.651C-58.2803 793.617 -104.565 749.915 -117.459 704.786C-130.353 659.657 -83.2737 669.969 -60.0681 675.766C-31.9917 685.327 -4.84039 697.416 21.0521 711.883C50.7394 726.789 78.2407 745.699 102.786 768.082C146.253 809.026 180.714 858.577 203.971 913.577C227.228 968.576 238.772 1027.82 237.866 1087.52C237.693 1182.05 208.48 1274.24 154.182 1351.62C145.026 1365 115.789 1423.33 91.5898 1404.87V1404.89Z" fill="url(#paint5_linear)"/>
<path d="M1774.5 1019C1799.08 1019 1819 999.077 1819 974.5C1819 949.923 1799.08 930 1774.5 930C1749.92 930 1730 949.923 1730 974.5C1730 999.077 1749.92 1019 1774.5 1019Z" fill="url(#paint6_linear)"/>
<path d="M1774.5 1013.76C1796.19 1013.76 1813.76 996.185 1813.76 974.5C1813.76 952.815 1796.19 935.235 1774.5 935.235C1752.81 935.235 1735.24 952.815 1735.24 974.5C1735.24 996.185 1752.81 1013.76 1774.5 1013.76Z" fill="white"/>
<path d="M1774.17 991.085C1783.33 991.085 1790.76 983.659 1790.76 974.5C1790.76 965.34 1783.33 957.915 1774.17 957.915C1765.01 957.915 1757.59 965.34 1757.59 974.5C1757.59 983.659 1765.01 991.085 1774.17 991.085Z" fill="url(#paint7_linear)"/>
<path d="M1774.17 989.134C1782.25 989.134 1788.81 982.582 1788.81 974.5C1788.81 966.418 1782.25 959.866 1774.17 959.866C1766.09 959.866 1759.54 966.418 1759.54 974.5C1759.54 982.582 1766.09 989.134 1774.17 989.134Z" fill="white"/>
<path d="M1931.5 719C1956.08 719 1976 699.077 1976 674.5C1976 649.923 1956.08 630 1931.5 630C1906.92 630 1887 649.923 1887 674.5C1887 699.077 1906.92 719 1931.5 719Z" fill="url(#paint8_linear)"/>
<path d="M1931.5 713.765C1953.19 713.765 1970.76 696.185 1970.76 674.5C1970.76 652.815 1953.19 635.235 1931.5 635.235C1909.81 635.235 1892.24 652.815 1892.24 674.5C1892.24 696.185 1909.81 713.765 1931.5 713.765Z" fill="white"/>
<path d="M1931.17 691.085C1940.33 691.085 1947.76 683.659 1947.76 674.5C1947.76 665.34 1940.33 657.915 1931.17 657.915C1922.01 657.915 1914.59 665.34 1914.59 674.5C1914.59 683.659 1922.01 691.085 1931.17 691.085Z" fill="url(#paint9_linear)"/>
<path d="M1931.17 689.134C1939.25 689.134 1945.81 682.582 1945.81 674.5C1945.81 666.418 1939.25 659.866 1931.17 659.866C1923.09 659.866 1916.54 666.418 1916.54 674.5C1916.54 682.582 1923.09 689.134 1931.17 689.134Z" fill="white"/>
<path d="M1626 1772C1892.2 1772 2108 1556.2 2108 1290C2108 1023.8 1892.2 808 1626 808C1359.8 808 1144 1023.8 1144 1290C1144 1556.2 1359.8 1772 1626 1772Z" fill="url(#paint10_linear)"/>
<path d="M1626 1715.29C1860.88 1715.29 2051.29 1524.88 2051.29 1290C2051.29 1055.12 1860.88 864.706 1626 864.706C1391.12 864.706 1200.71 1055.12 1200.71 1290C1200.71 1524.88 1391.12 1715.29 1626 1715.29Z" fill="white"/>
<path d="M1626.42 932.753C1554.89 932.753 1484.97 953.964 1425.49 993.703C1366.02 1033.44 1319.66 1089.93 1292.29 1156.01C1264.92 1222.1 1257.75 1294.81 1271.71 1364.97C1285.66 1435.12 1320.11 1499.56 1370.69 1550.14C1421.27 1600.72 1485.71 1635.17 1555.86 1649.12C1626.02 1663.08 1698.74 1655.91 1764.82 1628.54C1830.9 1601.17 1887.39 1554.81 1927.13 1495.34C1966.87 1435.86 1988.08 1365.94 1988.08 1294.41C1988.04 1198.5 1949.93 1106.53 1882.11 1038.72C1814.3 970.9 1722.33 932.786 1626.42 932.753ZM1590.25 1581.21C1576.64 1591.27 1545.65 1572.95 1521.9 1564.06C1467.37 1543.17 1420.49 1506.19 1387.47 1458.03C1354.45 1409.87 1336.86 1352.8 1337.04 1294.41C1337.04 1271.99 1335.19 1243.44 1344.64 1229.68C1354.08 1215.91 1358.51 1223.01 1374.82 1239.33C1391.12 1255.65 1381.84 1312.92 1417.59 1353.82C1453.35 1394.71 1481.67 1357.22 1517.86 1402.92C1554.05 1448.63 1489.29 1421.18 1500.85 1456.74C1512.41 1492.29 1567.92 1495.85 1590.25 1527.03C1612.58 1558.21 1603.86 1571.14 1590.25 1581.21ZM1823.88 1493.72C1808.63 1482.14 1826.53 1462.58 1817.31 1448.92C1813.67 1442.14 1808.22 1436.5 1801.57 1432.63C1794.92 1428.75 1787.32 1426.79 1779.63 1426.96C1779.63 1426.96 1737.66 1445.99 1728.68 1418.86C1719.7 1391.73 1734.97 1330.58 1734.97 1330.58C1734.93 1321 1731.11 1311.82 1724.34 1305.04C1717.56 1298.27 1708.38 1294.44 1698.8 1294.41C1698.8 1294.41 1536.05 1310.6 1481.81 1294.41C1427.56 1278.23 1463.73 1247.75 1481.81 1229.68C1499.89 1211.6 1549.4 1240.62 1576.53 1229.68C1581.09 1228.05 1585.25 1225.45 1588.71 1222.06C1592.17 1218.67 1594.85 1214.56 1596.57 1210.04C1598.29 1205.51 1599 1200.66 1598.67 1195.82C1598.33 1190.99 1596.94 1186.29 1594.61 1182.04C1588.54 1172.97 1558.45 1150.39 1576.53 1132.31C1594.61 1114.23 1638.74 1117.91 1662.23 1121.79C1685.73 1125.67 1699.77 1139.87 1717.81 1121.79C1729.76 1109.83 1700.69 1082.39 1692.59 1054.05C1684.5 1025.71 1714.06 1032.18 1728.64 1035.82C1746.27 1041.83 1763.32 1049.42 1779.58 1058.5C1798.23 1067.86 1815.5 1079.74 1830.91 1093.8C1858.21 1119.51 1879.85 1150.63 1894.46 1185.17C1909.06 1219.71 1916.31 1256.91 1915.74 1294.41C1915.64 1353.78 1897.29 1411.67 1863.19 1460.27C1857.44 1468.67 1839.08 1505.3 1823.88 1493.71V1493.72Z" fill="url(#paint11_linear)"/>
<path d="M1783.7 407.183C1776.75 407.183 1770 408.544 1763.66 411.226C1757.52 413.819 1752.01 417.532 1747.28 422.262C1742.55 426.992 1738.83 432.499 1736.24 438.628C1733.55 444.97 1732.19 451.712 1732.19 458.665C1732.19 465.618 1733.55 472.359 1736.24 478.702C1738.83 484.831 1742.55 490.337 1747.28 495.068C1752.01 499.798 1757.52 503.511 1763.66 506.104C1770 508.786 1776.75 510.146 1783.7 510.146C1792.53 510.146 1801.37 507.894 1808.59 503.8C1810.23 502.871 1812.15 502.4 1814.29 502.4C1819.14 502.4 1824.9 504.825 1831 507.393C1831.74 507.705 1832.65 508.088 1833.62 508.485C1833.03 507.011 1832.38 505.471 1831.74 503.962C1828.02 495.141 1825.57 489.314 1828.28 484.49C1832.88 476.318 1835.22 467.629 1835.22 458.665C1835.22 451.712 1833.86 444.97 1831.17 438.628C1828.58 432.499 1824.86 426.992 1820.13 422.262C1815.4 417.532 1809.89 413.819 1803.75 411.226C1797.41 408.544 1790.66 407.183 1783.7 407.183ZM1783.7 400C1816.12 400 1842.41 426.265 1842.41 458.665C1842.41 469.098 1839.68 478.894 1834.54 488.015C1832.4 491.819 1845.95 513.546 1842.41 517.33C1841.97 517.794 1841.29 517.994 1840.41 517.994C1834.72 517.994 1820.85 509.583 1814.29 509.583C1813.43 509.583 1812.7 509.727 1812.13 510.051C1804.24 514.525 1794.3 517.33 1783.7 517.33C1751.29 517.33 1725 491.065 1725 458.665C1725 426.265 1751.29 400 1783.7 400Z" fill="url(#paint12_linear)"/>
<path d="M1759.75 464.651C1763.05 464.651 1765.74 461.971 1765.74 458.665C1765.74 455.359 1763.05 452.679 1759.75 452.679C1756.44 452.679 1753.76 455.359 1753.76 458.665C1753.76 461.971 1756.44 464.651 1759.75 464.651Z" fill="#0BB3E7"/>
<path d="M1783.71 464.651C1787.01 464.651 1789.7 461.971 1789.7 458.665C1789.7 455.359 1787.01 452.679 1783.71 452.679C1780.4 452.679 1777.72 455.359 1777.72 458.665C1777.72 461.971 1780.4 464.651 1783.71 464.651Z" fill="#0BB3E7"/>
<path d="M1807.67 464.651C1810.97 464.651 1813.66 461.971 1813.66 458.665C1813.66 455.359 1810.97 452.679 1807.67 452.679C1804.36 452.679 1801.68 455.359 1801.68 458.665C1801.68 461.971 1804.36 464.651 1807.67 464.651Z" fill="#0BB3E7"/>
</g>
<defs>
<linearGradient id="paint0_linear" x1="1580.4" y1="182.5" x2="1649.55" y2="313" gradientUnits="userSpaceOnUse">
<stop stop-color="#45D696"/>
<stop offset="1" stop-color="#0080FF"/>
</linearGradient>
<linearGradient id="paint1_linear" x1="1598.88" y1="213.71" x2="1626.56" y2="276.083" gradientUnits="userSpaceOnUse">
<stop stop-color="#45D696"/>
<stop offset="1" stop-color="#0080FF"/>
</linearGradient>
<linearGradient id="paint2_linear" x1="1816.96" y1="-81.77" x2="1941.89" y2="154" gradientUnits="userSpaceOnUse">
<stop stop-color="#45D696"/>
<stop offset="1" stop-color="#0080FF"/>
</linearGradient>
<linearGradient id="paint3_linear" x1="1860.84" y1="-18.87" x2="1907.4" y2="69" gradientUnits="userSpaceOnUse">
<stop stop-color="#45D696"/>
<stop offset="1" stop-color="#0080FF"/>
</linearGradient>
<linearGradient id="paint4_linear" x1="-628.74" y1="512.55" x2="78.8951" y2="1848" gradientUnits="userSpaceOnUse">
<stop stop-color="#45D696"/>
<stop offset="1" stop-color="#0080FF"/>
</linearGradient>
<linearGradient id="paint5_linear" x1="-526.896" y1="661.375" x2="4.06344" y2="1663.4" gradientUnits="userSpaceOnUse">
<stop stop-color="#45D696"/>
<stop offset="1" stop-color="#0080FF"/>
</linearGradient>
<linearGradient id="paint6_linear" x1="1751" y1="941.57" x2="1792.03" y2="1019" gradientUnits="userSpaceOnUse">
<stop stop-color="#45D696"/>
<stop offset="1" stop-color="#0080FF"/>
</linearGradient>
<linearGradient id="paint7_linear" x1="1765.41" y1="962.227" x2="1780.71" y2="991.085" gradientUnits="userSpaceOnUse">
<stop stop-color="#45D696"/>
<stop offset="1" stop-color="#0080FF"/>
</linearGradient>
<linearGradient id="paint8_linear" x1="1908" y1="641.57" x2="1949.03" y2="719" gradientUnits="userSpaceOnUse">
<stop stop-color="#45D696"/>
<stop offset="1" stop-color="#0080FF"/>
</linearGradient>
<linearGradient id="paint9_linear" x1="1922.41" y1="662.227" x2="1937.71" y2="691.085" gradientUnits="userSpaceOnUse">
<stop stop-color="#45D696"/>
<stop offset="1" stop-color="#0080FF"/>
</linearGradient>
<linearGradient id="paint10_linear" x1="1371.5" y1="933.32" x2="1815.91" y2="1772" gradientUnits="userSpaceOnUse">
<stop stop-color="#45D696"/>
<stop offset="1" stop-color="#0080FF"/>
</linearGradient>
<linearGradient id="paint11_linear" x1="1435.46" y1="1026.78" x2="1768.91" y2="1656.07" gradientUnits="userSpaceOnUse">
<stop stop-color="#45D696"/>
<stop offset="1" stop-color="#0080FF"/>
</linearGradient>
<linearGradient id="paint12_linear" x1="1752.85" y1="415.339" x2="1807.25" y2="517.995" gradientUnits="userSpaceOnUse">
<stop stop-color="#45D696"/>
<stop offset="1" stop-color="#0080FF"/>
</linearGradient>
<clipPath id="clip0">
<rect width="1920" height="1080" fill="white" transform="translate(0 -105)"/>
</clipPath>
</defs>
</svg>
