<svg width="139" height="139" viewBox="0 0 139 139" fill="none" xmlns="http://www.w3.org/2000/svg">
<path d="M69.5 139C107.884 139 139 107.884 139 69.5C139 31.1162 107.884 0 69.5 0C31.1162 0 0 31.1162 0 69.5C0 107.884 31.1162 139 69.5 139Z" fill="url(#paint0_linear)"/>
<path d="M69.5 130.824C103.368 130.824 130.824 103.368 130.824 69.5C130.824 35.6319 103.368 8.17645 69.5 8.17645C35.632 8.17645 8.17651 35.6319 8.17651 69.5C8.17651 103.368 35.632 130.824 69.5 130.824Z" fill="white"/>
<path d="M69.5605 17.9882C59.2466 17.9882 49.1644 21.0466 40.5887 26.7767C32.013 32.5068 25.3291 40.6512 21.3821 50.18C17.4352 59.7088 16.4025 70.194 18.4146 80.3097C20.4268 90.4254 25.3934 99.7172 32.6864 107.01C39.9794 114.303 49.2713 119.27 59.387 121.282C69.5027 123.294 79.9879 122.261 89.5167 118.314C99.0454 114.368 107.19 107.684 112.92 99.1079C118.65 90.5323 121.708 80.45 121.708 70.1361C121.704 56.3071 116.208 43.0458 106.429 33.2673C96.6508 23.4887 83.3895 17.993 69.5605 17.9882ZM64.3456 111.489C62.3832 112.94 57.914 110.299 54.4896 109.017C46.6273 106.005 39.867 100.673 35.1062 93.7281C30.3454 86.7838 27.8092 78.5557 27.8344 70.1361C27.8344 66.9031 27.5678 62.7871 28.93 60.8019C30.2922 58.8166 30.93 59.8403 33.2815 62.1935C35.6331 64.5467 34.2938 72.8049 39.4498 78.7018C44.6059 84.5987 48.6893 79.1924 53.9075 85.7826C59.1257 92.3728 49.7882 88.4154 51.4545 93.5421C53.1209 98.6687 61.1257 99.1822 64.3456 103.678C67.5655 108.173 66.3079 110.037 64.3456 111.489ZM98.0326 98.8748C95.8332 97.2051 98.4153 94.3843 97.0858 92.4154C96.5601 91.4377 95.7744 90.6244 94.8154 90.0654C93.8564 89.5063 92.7615 89.2234 91.6517 89.2478C91.6517 89.2478 85.6011 91.9918 84.306 88.0802C83.0108 84.1686 85.2119 75.3511 85.2119 75.3511C85.2072 73.9694 84.6562 72.6457 83.6793 71.6688C82.7023 70.6918 81.3786 70.1409 79.997 70.1361C79.997 70.1361 56.5305 72.4697 48.7089 70.1361C40.8873 67.8025 46.1022 63.4085 48.7089 60.8019C51.3155 58.1952 58.4552 62.3799 62.3669 60.8019C63.0249 60.5672 63.624 60.1924 64.123 59.7034C64.6219 59.2144 65.0087 58.6229 65.2566 57.9698C65.5044 57.3167 65.6075 56.6175 65.5586 55.9206C65.5098 55.2237 65.3101 54.5458 64.9735 53.9336C64.0986 52.6254 59.7602 49.3695 62.3669 46.7629C64.9735 44.1562 71.3364 44.686 74.7248 45.2453C78.1131 45.8046 80.1376 47.852 82.7377 45.2453C84.4613 43.5217 80.2701 39.5643 79.1025 35.4777C77.9349 31.3911 82.1981 32.3248 84.2994 32.8498C86.8419 33.7156 89.3005 34.8103 91.6452 36.1204C94.3335 37.4701 96.8238 39.1825 99.0465 41.2094C102.983 44.917 106.103 49.4041 108.209 54.3844C110.315 59.3648 111.36 64.7294 111.279 70.1361C111.263 78.6958 108.617 87.044 103.701 94.0507C102.871 95.2624 100.224 100.544 98.0326 98.8731V98.8748Z" fill="url(#paint1_linear)"/>
<defs>
<linearGradient id="paint0_linear" x1="32.804" y1="18.07" x2="96.883" y2="139" gradientUnits="userSpaceOnUse">
<stop stop-color="#45D696"/>
<stop offset="1" stop-color="#0080FF"/>
</linearGradient>
<linearGradient id="paint1_linear" x1="42.0264" y1="31.5467" x2="90.1068" y2="122.284" gradientUnits="userSpaceOnUse">
<stop stop-color="#45D696"/>
<stop offset="1" stop-color="#0080FF"/>
</linearGradient>
</defs>
</svg>
