<svg width="48" height="50" viewBox="0 0 48 50" fill="none" xmlns="http://www.w3.org/2000/svg">
<path d="M24 0C19.2533 0 14.6131 1.46622 10.6663 4.21326C6.71954 6.96029 3.6434 10.8648 1.8269 15.4329C0.0103989 20.0011 -0.464881 25.0277 0.461164 29.8772C1.38721 34.7268 3.67299 39.1813 7.02945 42.6777C10.3859 46.174 14.6623 48.555 19.3178 49.5196C23.9734 50.4842 28.799 49.9892 33.1844 48.097C37.5698 46.2048 41.3181 43.0005 43.9553 38.8892C46.5924 34.778 48 29.9445 48 25C48 21.7169 47.3792 18.466 46.1731 15.4329C44.967 12.3998 43.1992 9.64379 40.9706 7.32233C38.742 5.00086 36.0962 3.15938 33.1844 1.90301C30.2726 0.646644 27.1517 0 24 0ZM19.2 36.25V13.75L33.6 25L19.2 36.25Z" fill="#45D696"/>
</svg>
